#!OML:ASF H:\MichaelJackson\Top Level 1\Subject 1\Session 1\male.ASF
:FULLY-SPECIFIED
:DEGREES
1
root -13.1031 16.9794 -34.4429 9.13171 8.59474 -0.245379
lowerback -10.9851 1.49933 6.64851
upperback 2.23753 1.18351 -1.44725
thorax 8.77184 0.962628 -5.09586
lowerneck -8.42611 7.09611 -1.38314
upperneck 3.95725 9.56207 1.03535
head 2.59091 4.76985 1.01735
rclavicle 6.74781e-016 -1.64929e-014
rhumerus -36.8829 14.17 -102.844
rradius 37.7908
rwrist -0.0578386
rhand -19.6607 -20.4481
rfingers 7.12502
rthumb 6.66739 -50.3231
lclavicle 6.74781e-016 -1.64929e-014
lhumerus -38.5325 -17.7489 96.8898
lradius 47.141
lwrist 9.69608
lhand 14.0148 12.8318
lfingers 7.12502
lthumb 38.9235 38.3737
rfemur -20.4676 1.58914 23.5509
rtibia 34.4434
rfoot -31.7037 -23.0826
rtoes 11.3357
lfemur -25.8141 4.586 -17.8009
ltibia 37.4972
lfoot -34.1196 -15.8232
ltoes 50.964
2
root -13.0876 16.9819 -34.4428 9.13072 8.38614 -0.255999
lowerback -10.9238 1.47632 6.3981
upperback 2.22675 1.18986 -1.41427
thorax 8.71651 0.949382 -4.91644
lowerneck -7.87055 6.52695 -1.17703
upperneck 2.90186 8.78987 0.705167
head 2.17198 4.38617 0.789554
rclavicle 6.37509e-015 -1.39274e-014
rhumerus -36.7479 13.8617 -102.642
rradius 37.5544
rwrist 0.428872
rhand -19.9341 -20.6149
rfingers 7.12502
rthumb 6.40345 -50.4981
lclavicle 6.37509e-015 -1.39274e-014
lhumerus -38.5152 -17.5433 96.9179
lradius 46.9157
lwrist 9.56336
lhand 13.2288 13.2447
lfingers 7.12502
lthumb 38.1819 38.9942
rfemur -20.4992 1.68237 23.4729
rtibia 34.5226
rfoot -31.7447 -22.9649
rtoes 11.2895
lfemur -25.7287 4.68037 -17.8679
ltibia 37.4099
lfoot -34.124 -15.6544
ltoes 50.7185
3
root -13.073 16.98 -34.4721 9.82729 8.16424 -0.341427
lowerback -11.1117 1.5133 6.24719
upperback 1.93322 1.25166 -1.37788
thorax 8.50712 0.955523 -4.7786
lowerneck -7.6255 5.94505 -1.02353
upperneck 2.15814 8.00368 0.508904
head 1.90617 3.99562 0.642704
rclavicle 4.15584e-015 4.74598e-015
rhumerus -36.6322 13.693 -102.459
rradius 37.3727
rwrist 0.643033
rhand -20.306 -20.6151
rfingers 7.12502
rthumb 6.04439 -50.5088
lclavicle 4.15584e-015 4.74598e-015
lhumerus -38.4111 -17.411 96.9753
lradius 46.5543
lwrist 9.56031
lhand 11.4667 12.2564
lfingers 7.12502
lthumb 36.5161 38.4444
rfemur -21.4981 1.53671 23.4606
rtibia 34.5989
rfoot -31.4773 -22.6285
rtoes 10.9945
lfemur -26.3942 4.38391 -17.8284
ltibia 37.3295
lfoot -34.0593 -15.2816
ltoes 50.7614
4
root -13.0598 16.9919 -34.4696 9.84521 7.9169 -0.378407
lowerback -11.0773 1.51739 5.98136
upperback 1.91855 1.29326 -1.32983
thorax 8.46693 0.959389 -4.56774
lowerneck -7.46795 5.37836 -0.76872
upperneck 1.66979 7.23801 0.0940508
head 1.75115 3.60802 0.427021
rclavicle 4.83606e-015 -1.11816e-015
rhumerus -36.588 13.4155 -102.238
rradius 37.2932
rwrist 1.22267
rhand -20.4741 -21.0487
rfingers 7.12502
rthumb 5.88213 -50.947
lclavicle 4.83606e-015 -1.11816e-015
lhumerus -38.3184 -17.2577 97.0168
lradius 46.1704
lwrist 9.4568
lhand 10.3119 11.7055
lfingers 7.12502
lthumb 35.4221 38.1619
rfemur -21.4788 1.99509 23.3993
rtibia 34.5569
rfoot -31.4512 -22.8129
rtoes 11.2008
lfemur -26.5238 4.75593 -17.9696
ltibia 37.3109
lfoot -33.9392 -15.136
ltoes 50.7601
5
root -13.0418 16.9769 -34.4727 9.91374 7.69201 -0.37388
lowerback -11.0943 1.52161 5.7315
upperback 1.89496 1.33143 -1.30352
thorax 8.44709 0.963568 -4.38992
lowerneck -7.37408 4.90708 -0.723241
upperneck 1.28949 6.60715 -0.00681458
head 1.61965 3.29354 0.354777
rclavicle 2.03133e-014 4.79568e-015
rhumerus -36.5162 13.2066 -102.053
rradius 37.1586
rwrist 1.72665
rhand -20.7671 -21.388
rfingers 7.12502
rthumb 5.59917 -51.294
lclavicle 2.03133e-014 4.79568e-015
lhumerus -38.2012 -17.136 97.0758
lradius 45.8075
lwrist 9.49461
lhand 9.30867 13.0406
lfingers 7.12502
lthumb 34.4703 39.7187
rfemur -21.5844 2.41947 23.2761
rtibia 34.5948
rfoot -31.5121 -22.9302
rtoes 11.5071
lfemur -26.2216 4.31082 -17.8909
ltibia 37.2444
lfoot -34.1681 -14.8248
ltoes 51.0422
6
root -13.0271 16.9956 -34.4727 9.96709 7.4708 -0.404077
lowerback -11.0603 1.52744 5.49105
upperback 1.87603 1.37203 -1.26191
thorax 8.4028 0.968495 -4.20115
lowerneck -7.81809 4.47223 -0.738164
upperneck 1.53858 6.03393 -0.0244074
head 1.78321 3.00471 0.349364
rclavicle -2.07233e-014 4.96962e-017
rhumerus -36.7378 12.4924 -101.714
rradius 37.4824
rwrist 3.00381
rhand -21.0095 -21.6095
rfingers 7.12502
rthumb 5.36516 -51.5216
lclavicle -2.07233e-014 4.96962e-017
lhumerus -38.1138 -16.9226 97.064
lradius 45.4719
lwrist 9.02671
lhand 8.44344 12.3135
lfingers 7.12502
lthumb 33.6485 39.1746
rfemur -21.5751 3.36112 23.1624
rtibia 34.5367
rfoot -31.3951 -23.5582
rtoes 11.6738
lfemur -26.5224 4.67992 -18.094
ltibia 37.2086
lfoot -33.9979 -14.5053
ltoes 50.4672
7
root -13.0079 16.9988 -34.4775 10.1023 7.26989 -0.437572
lowerback -11.0914 1.55392 5.3168
upperback 1.81732 1.42864 -1.23041
thorax 8.35684 0.983907 -4.05758
lowerneck -7.37914 4.12066 -0.823533
upperneck 0.747918 5.56689 -0.0309575
head 1.44853 2.77643 0.318288
rclavicle -2.49847e-014 -2.08724e-015
rhumerus -36.3719 12.7157 -101.635
rradius 36.8659
rwrist 3.19246
rhand -21.5385 -21.7447
rfingers 7.12502
rthumb 4.85441 -51.6691
lclavicle -2.49847e-014 -2.08724e-015
lhumerus -38.0588 -16.8712 97.1659
lradius 45.2176
lwrist 9.16601
lhand 7.47332 13.3071
lfingers 7.12502
lthumb 32.7261 40.3647
rfemur -21.8207 2.87393 23.1417
rtibia 34.613
rfoot -31.2427 -23.0237
rtoes 10.7016
lfemur -26.5894 4.53929 -18.1419
ltibia 37.0754
lfoot -33.9442 -14.1323
ltoes 50.4286
8
root -12.9873 17.0029 -34.4822 10.3683 7.02214 0.0555689
lowerback -11.1707 1.52966 4.62919
upperback 1.74239 1.49968 -1.34741
thorax 8.30991 0.985786 -3.77891
lowerneck -7.44148 3.73303 -0.91143
upperneck 0.516599 5.05548 0.0588693
head 1.38311 2.524 0.341347
rclavicle 1.03368e-014 2.56432e-014
rhumerus -36.3026 12.5905 -101.486
rradius 36.6833
rwrist 3.73454
rhand -21.9317 -22.0215
rfingers 7.12502
rthumb 4.47471 -51.9542
lclavicle 1.03368e-014 2.56432e-014
lhumerus -37.917 -16.7333 97.2095
lradius 44.6841
lwrist 9.02531
lhand 6.17171 13.1161
lfingers 7.12502
lthumb 31.4869 40.4236
rfemur -22.0984 2.42639 22.5123
rtibia 34.6561
rfoot -31.2903 -22.4394
rtoes 10.6617
lfemur -26.703 4.29195 -18.79
ltibia 36.9345
lfoot -33.8802 -13.6862
ltoes 50.3429
9
root -12.9687 17.0049 -34.4794 10.4298 6.76863 0.314816
lowerback -11.2092 1.52973 4.11551
upperback 1.74441 1.57374 -1.3855
thorax 8.32575 0.998556 -3.51382
lowerneck -7.28879 3.27981 -0.643254
upperneck 0.158091 4.43432 -0.269735
head 1.25882 2.20975 0.166707
rclavicle 1.05045e-014 3.47873e-016
rhumerus -36.2816 12.489 -101.355
rradius 36.3952
rwrist 4.80245
rhand -22.837 -21.8222
rfingers 7.12502
rthumb 3.60054 -51.7715
lclavicle 1.05045e-014 3.47873e-016
lhumerus -37.788 -16.6306 97.2601
lradius 44.2577
lwrist 8.8589
lhand 5.07225 12.6263
lfingers 7.12502
lthumb 30.4389 40.1332
rfemur -22.2041 2.37929 22.136
rtibia 34.803
rfoot -31.3526 -22.2494
rtoes 10.6097
lfemur -26.5572 4.20631 -19.1617
ltibia 36.7188
lfoot -33.8755 -13.3579
ltoes 50.2463
10
root -12.9503 17.0075 -34.4767 10.5302 6.48794 0.624501
lowerback -11.2802 1.53837 3.55619
upperback 1.73197 1.66651 -1.44006
thorax 8.34439 1.01838 -3.23667
lowerneck -6.75493 2.90805 -0.347555
upperneck -0.725087 3.91504 -0.67015
head 0.901745 1.94894 -0.0408888
rclavicle -1.79838e-014 1.90336e-014
rhumerus -36.3909 12.0888 -101.092
rradius 36.5962
rwrist 5.23883
rhand -23.173 -22.1214
rfingers 7.12502
rthumb 3.27605 -52.0759
lclavicle -1.79838e-014 1.90336e-014
lhumerus -37.6105 -16.4562 97.3081
lradius 43.7009
lwrist 8.46979
lhand 4.36511 13.5145
lfingers 7.12502
lthumb 29.7642 41.1442
rfemur -22.3156 2.8632 21.6555
rtibia 34.9528
rfoot -31.6574 -22.4285
rtoes 11.4446
lfemur -26.4455 4.12664 -19.5906
ltibia 36.4908
lfoot -33.8402 -13.0235
ltoes 50.1646
11
root -12.9339 17.0092 -34.4742 10.5708 6.21161 0.81721
lowerback -11.2652 1.56665 3.07331
upperback 1.71145 1.77435 -1.45225
thorax 8.30583 1.04699 -2.95615
lowerneck -6.62154 2.56255 -0.396203
upperneck -0.973091 3.45504 -0.582303
head 0.797908 1.72188 -0.0229274
rclavicle -8.09426e-015 -9.39258e-015
rhumerus -36.3927 11.8244 -100.867
rradius 36.6245
rwrist 5.4064
rhand -23.1788 -22.5262
rfingers 7.12502
rthumb 3.27042 -52.4809
lclavicle -8.09426e-015 -9.39258e-015
lhumerus -37.4653 -16.373 97.4044
lradius 43.1968
lwrist 8.17592
lhand 3.51652 13.5778
lfingers 7.12502
lthumb 28.954 41.3494
rfemur -22.3921 2.90213 21.356
rtibia 35.0504
rfoot -31.5695 -22.3479
rtoes 10.7126
lfemur -26.3211 4.11334 -19.8751
ltibia 36.3219
lfoot -33.8659 -12.7667
ltoes 50.0719
